<?xml version="1.0" encoding="UTF-8" standalone="no"?>
<svg
   xmlns:dc="http://purl.org/dc/elements/1.1/"
   xmlns:cc="http://creativecommons.org/ns#"
   xmlns:rdf="http://www.w3.org/1999/02/22-rdf-syntax-ns#"
   xmlns:svg="http://www.w3.org/2000/svg"
   xmlns="http://www.w3.org/2000/svg"
   xmlns:sodipodi="http://sodipodi.sourceforge.net/DTD/sodipodi-0.dtd"
   xmlns:inkscape="http://www.inkscape.org/namespaces/inkscape"
   width="16"
   height="16"
   viewBox="0 0 4.2333332 4.2333332"
   version="1.1"
   id="svg8"
   inkscape:version="1.0.2 (e86c870879, 2021-01-15, custom)"
   sodipodi:docname="ic_gamepad_b.svg">
  <defs
     id="defs2" />
  <sodipodi:namedview
     id="base"
     pagecolor="#ffffff"
     bordercolor="#666666"
     borderopacity="1.0"
     inkscape:pageopacity="0.0"
     inkscape:pageshadow="2"
     inkscape:zoom="63.356768"
     inkscape:cx="9.0894626"
     inkscape:cy="7.0544308"
     inkscape:document-units="px"
     inkscape:current-layer="layer1"
     inkscape:document-rotation="0"
     showgrid="true"
     units="px"
     fit-margin-top="0"
     fit-margin-left="0"
     fit-margin-right="0"
     fit-margin-bottom="0"
     inkscape:window-width="2560"
     inkscape:window-height="1361"
     inkscape:window-x="-9"
     inkscape:window-y="390"
     inkscape:window-maximized="1"
     objecttolerance="1"
     guidetolerance="1"
     inkscape:pagecheckerboard="true">
    <inkscape:grid
       type="xygrid"
       id="grid16" />
  </sodipodi:namedview>
  <metadata
     id="metadata5">
    <rdf:RDF>
      <cc:Work
         rdf:about="">
        <dc:format>image/svg+xml</dc:format>
        <dc:type
           rdf:resource="http://purl.org/dc/dcmitype/StillImage" />
        <dc:title></dc:title>
      </cc:Work>
    </rdf:RDF>
  </metadata>
  <g
     inkscape:label="Layer 1"
     inkscape:groupmode="layer"
     id="layer1">
    <circle
       style="fill:#ffffff;fill-rule:evenodd;stroke-width:0.264879;fill-opacity:1"
       id="path10"
       cx="2.1166666"
       cy="2.1166666"
       r="2.1166666" />
    <g
       aria-label="B"
       id="text1425"
       style="font-weight:bold;font-size:3.52777px;line-height:1.25;font-family:'Noto Sans';-inkscape-font-specification:'Noto Sans, Bold';stroke-width:0.264583">
      <path
         d="m 1.1957033,0.80470501 h 0.7831649 q 0.5009434,0 0.7584706,0.1411108 0.261055,0.14111079 0.261055,0.49741559 0,0.215194 -0.1023053,0.3633603 Q 2.7973109,1.954758 2.6103391,1.986508 v 0.017639 q 0.1234719,0.028222 0.2257773,0.091722 0.1058331,0.059972 0.1658052,0.1799163 0.059972,0.1199442 0.059972,0.3174993 0,0.3421937 -0.2504716,0.5362211 Q 2.5644781,3.3235328 2.1376179,3.3235328 H 1.1957033 Z M 1.7283966,1.8030639 h 0.3104437 q 0.2328329,0 0.3210271,-0.070555 0.091722,-0.074083 0.091722,-0.2187217 0,-0.1446386 -0.1058331,-0.2081384 -0.1058331,-0.0635 -0.3351381,-0.0635 H 1.7283966 Z m 0,0.4233324 v 0.6561653 h 0.3492492 q 0.2398884,0 0.3351382,-0.091722 0.09525,-0.09525 0.09525,-0.2504716 0,-0.1411108 -0.098777,-0.2257773 -0.09525,-0.088194 -0.3492492,-0.088194 z"
         style="stroke-width:0.264583"
         id="path1427" />
    </g>
  </g>
</svg>
