<?xml version="1.0" encoding="UTF-8" standalone="no"?>
<svg
   xmlns:dc="http://purl.org/dc/elements/1.1/"
   xmlns:cc="http://creativecommons.org/ns#"
   xmlns:rdf="http://www.w3.org/1999/02/22-rdf-syntax-ns#"
   xmlns:svg="http://www.w3.org/2000/svg"
   xmlns="http://www.w3.org/2000/svg"
   xmlns:sodipodi="http://sodipodi.sourceforge.net/DTD/sodipodi-0.dtd"
   xmlns:inkscape="http://www.inkscape.org/namespaces/inkscape"
   height="12"
   viewBox="0 0 24 16"
   width="18"
   fill="#ffffff"
   version="1.1"
   id="svg6"
   sodipodi:docname="ic_indicator_hdr.svg"
   inkscape:version="1.0.2 (e86c870879, 2021-01-15, custom)">
  <metadata
     id="metadata12">
    <rdf:RDF>
      <cc:Work
         rdf:about="">
        <dc:format>image/svg+xml</dc:format>
        <dc:type
           rdf:resource="http://purl.org/dc/dcmitype/StillImage" />
        <dc:title></dc:title>
      </cc:Work>
    </rdf:RDF>
  </metadata>
  <defs
     id="defs10" />
  <sodipodi:namedview
     pagecolor="#ffffff"
     bordercolor="#666666"
     borderopacity="1"
     objecttolerance="10"
     gridtolerance="10"
     guidetolerance="10"
     inkscape:pageopacity="0"
     inkscape:pageshadow="2"
     inkscape:window-width="2560"
     inkscape:window-height="1361"
     id="namedview8"
     showgrid="false"
     inkscape:zoom="40.944444"
     inkscape:cx="9"
     inkscape:cy="9"
     inkscape:window-x="-9"
     inkscape:window-y="232"
     inkscape:window-maximized="1"
     inkscape:current-layer="svg6" />
  <rect
     style="fill:#000000;fill-opacity:0.5;stroke-width:1.33543"
     id="rect837"
     width="24"
     height="16"
     x="0"
     y="0"
     rx="2.6666667"
     ry="2.6666667" />
  <path
     d="M 0,0 H 24 V 24 H 0 Z"
     fill="none"
     id="path2" />
  <path
     d="m 21,7.5 v -1 C 21,5.7 20.3,5 19.5,5 H 16 v 6 h 1.5 V 9 h 1.1 l 0.9,2 H 21 L 20.1,8.9 C 20.6,8.6 21,8.1 21,7.5 Z m -1.5,0 h -2 v -1 h 2 z M 6.5,7 h -2 V 5 H 3 v 6 H 4.5 V 8.5 h 2 V 11 H 8 V 5 H 6.5 Z M 13,5 H 9.5 v 6 H 13 c 0.8,0 1.5,-0.7 1.5,-1.5 v -3 C 14.5,5.7 13.8,5 13,5 Z m 0,4.5 h -2 v -3 h 2 z"
     id="path4" />
</svg>
